<svg width="139" height="20" xmlns="http://www.w3.org/2000/svg">
 <defs>
  <linearGradient y2="100%" y1="0%" x2="17.503%" x1="72.195%" id="a">
   <stop stop-color="#33D35E" offset="0%"/>
   <stop stop-color="#2AB6D9" offset="100%"/>
  </linearGradient>
 </defs>
 <g>
  <title>background</title>
  <rect fill="none" id="canvas_background" height="602" width="802" y="-1" x="-1"/>
 </g>
 <g>
  <title>Layer 1</title>
  <g stroke="null" id="svg_1" fill-rule="evenodd" fill="none">
   <path stroke="#2d2f3d" id="svg_2" d="m37.754,16.65125c2.852,0 5.152,-1.70432 5.952,-4.42997l-3.897,0c-0.376,0.69875 -1.14,1.1201 -2.055,1.1201c-1.237,0 -2.065,-0.70821 -2.32,-2.07839l8.44,0c0.051,-0.36986 0.081,-0.72922 0.081,-1.08963c0,-3.50425 -2.537,-6.25197 -6.201,-6.25197c-3.568,0 -6.175,2.69413 -6.175,6.35599c0,3.64926 2.628,6.37385 6.175,6.37385zm2.344,-7.66733l-4.596,0c0.317,-1.1863 1.11,-1.83776 2.252,-1.83776c1.181,0 2,0.64411 2.344,1.83881l0,-0.00105zm10.946,7.66628c1.32,0 2.5,-0.45603 3.43,-1.24829l0.336,0.8448l3.027,0l0,-11.94599l-2.919,0l-0.4,0.92466c-0.94,-0.81433 -2.135,-1.28402 -3.474,-1.28402c-3.476,0 -5.961,2.63213 -5.961,6.33182c0,3.7123 2.485,6.37806 5.961,6.37806l0,-0.00105zm0.524,-3.64295c-1.467,0 -2.545,-1.16423 -2.545,-2.7246c0,-1.54986 1.069,-2.71409 2.545,-2.71409c1.466,0 2.544,1.16423 2.544,2.71409c0,1.56036 -1.078,2.7246 -2.544,2.7246zm13.123,3.64295c3.02,0 5.025,-1.63287 5.025,-4.12945c0,-3.02931 -2.387,-3.42124 -4.183,-3.75643c-1.08,-0.20279 -1.95,-0.36146 -1.95,-1.04024c0,-0.55375 0.422,-0.88053 1.05,-0.88053c0.71,0 1.197,0.3541 1.197,1.11695l3.667,0c-0.044,-2.41988 -1.92,-4.03804 -4.816,-4.03804c-2.912,0 -4.854,1.5446 -4.854,3.94032c0,2.89692 2.337,3.45592 4.1,3.75538c1.092,0.19019 1.952,0.38668 1.952,1.07597c0,0.61679 -0.543,0.92466 -1.116,0.92466c-0.742,0 -1.32,-0.40244 -1.32,-1.27561l-3.77,0c0.036,2.588 1.919,4.30808 5.018,4.30808l0,-0.00105zm8.1,4.0538c2.936,0 4.344,-1.32079 5.877,-4.97636l4.764,-11.41431l-4.206,0l-2.249,6.58085l-2.412,-6.58085l-4.255,0l4.698,10.95933c-0.53,1.48576 -0.983,1.89555 -2.48,1.89555l-1.078,0l0,3.53578l1.341,0zm18.504,-4.0538c3.5,0 5.973,-2.64264 5.973,-6.35494s-2.472,-6.35494 -5.973,-6.35494a5.332,5.6026 0 0 0 -2.825,0.82379l0,-4.7641l-3.87,0l0,16.25932l2.897,0l0.37,-0.88683c0.923,0.81013 2.102,1.27771 3.428,1.27771zm-0.523,-3.64295c-1.467,0 -2.545,-1.16423 -2.545,-2.71094c0,-1.56142 1.078,-2.72565 2.545,-2.72565c1.466,0 2.544,1.16423 2.544,2.7246c0,1.54776 -1.087,2.71094 -2.544,2.71094l0,0.00105zm13.598,3.64295c1.32,0 2.5,-0.45603 3.43,-1.24829l0.336,0.8448l3.027,0l0,-11.94599l-2.918,0l-0.401,0.92466c-0.939,-0.81433 -2.135,-1.28402 -3.474,-1.28402c-3.476,0 -5.96,2.63213 -5.96,6.33182c0,3.7123 2.484,6.37806 5.96,6.37806l0,-0.00105zm0.524,-3.64295c-1.467,0 -2.545,-1.16423 -2.545,-2.7246c0,-1.54986 1.07,-2.71409 2.545,-2.71409c1.467,0 2.545,1.16423 2.545,2.71409c0,1.56036 -1.078,2.7246 -2.545,2.7246zm12.653,3.25207l0,-6.37911c0,-1.52044 0.702,-2.41673 1.923,-2.41673c0.986,0 1.483,0.69034 1.483,2.08049l0,6.7143l3.915,0l0,-7.2817c0,-3.04403 -1.733,-5.01523 -4.373,-5.01523c-1.47,0 -2.733,0.59367 -3.58,1.58453l-0.537,-1.23148l-2.747,0l0,11.94599l3.916,0l0,-0.00105zm13.748,0l0,-5.05201l2.848,5.05201l4.616,0l-3.902,-6.25197l3.543,-5.69402l-4.397,0l-2.708,4.68004l0,-8.99338l-3.916,0l0,16.25932l3.916,0z" fill-rule="nonzero" fill="#f9f9f9"/>
   <g stroke="null" id="svg_3" fill="url(#a)">
    <path stroke="#2d2f3d" fill="#f9f9f9" id="svg_4" d="m10.802,0l-10.802,20.70399l5.986,0l10.803,-20.70399l-5.987,0z"/>
    <path stroke="#2d2f3d" fill="#f9f9f9" id="svg_5" d="m18.171,0l-10.803,20.70399l5.986,0l10.803,-20.70399l-5.986,0z" opacity="0.5"/>
    <path stroke="#2d2f3d" fill="#f9f9f9" id="svg_6" d="m25.539,0l-10.802,20.70399l5.986,0l10.802,-20.70399l-5.986,0z" opacity="0.15"/>
   </g>
  </g>
 </g>
</svg>